<svg xmlns="http://www.w3.org/2000/svg" width="142" height="55" viewBox="0 0 142 55">
    <g fill="#FFF" fill-rule="nonzero" opacity=".5">
        <path d="M27.996 0c-.008.117-.02.233-.02.35 0 4.44.001 8.872-.002 13.304-.002 1.916-.556 3.63-1.846 5.073-.653.729-1.47 1.258-2.247 1.826-6.207 4.544-12.416 9.079-18.614 13.622A283.563 283.563 0 0 0 0 38L1.604.002H28L27.996 0zM57 0c-.009.126-.023.251-.023.375v16.262c0 .363 0 .363-.383.363H30.411c-.38 0-.38 0-.38-.363L30.023.375C30.023.25 30.01.124 30 0h27zM0 38c.147.007.296.02.444.02h26.134c.422 0 .422.001.422.414V54.59c0 .383 0 .383-.397.383H.384c-.127 0-.256.016-.384.026V38zM73 .005c-.009.11-.02.218-.02.326v9.283c0 .373 0 .35-.385.382-.386.03-.611-.103-.83-.406-1.747-2.417-3.512-4.822-5.275-7.23a.708.708 0 0 0-.232-.216c-.011.098-.025.198-.025.297v7.216c0 .327 0 .329-.354.329-.217 0-.435-.003-.652 0-.153.003-.216-.057-.21-.196.01-.084 0-.168 0-.25V.38L65 .002h1.307c.04.081.07.17.123.242 1.7 2.332 3.398 4.664 5.1 6.988.047.06.103.119.158.18a.582.582 0 0 0 .077-.293V.275c0-.09-.01-.182-.016-.275H73v.005zM112 .002c-.014.109-.034.217-.037.324v9.34c0 .329 0 .329-.573.33-.303 0-.61-.008-.912.002-.33.015-.456-.044-.45-.253.02-.679.009-1.365.009-2.044V.325C110.034.219 110.01.108 110 0h1.997l.003.002zM56.286 18.731v35.863c0 .386 0 .386-.38.386H30.38c-.38 0-.38 0-.38-.386 0-4.336.002-8.671 0-13.009-.002-2.58 1.028-4.626 3.153-6.149 3.481-2.493 6.944-5.013 10.414-7.522l12.46-9.012a7.46 7.46 0 0 1 .255-.174l.004.003zm9.631-.799v1.66c0 .126-.016.266.177.261.88-.019 1.768.012 2.642-.07.743-.07 1.28-.5 1.472-1.258.056-.236.064-.492.064-.74 0-.973-.568-1.635-1.56-1.71-.83-.063-1.671-.036-2.511-.063-.249-.009-.305.091-.305.316.009.534 0 1.07 0 1.604h.021zm2.978 2.925l2.897 4.684c-.48 0-.905.008-1.336-.016-.08-.009-.159-.135-.208-.221-.865-1.383-1.728-2.758-2.586-4.14-.127-.213-.27-.301-.52-.286-.327.016-.647.016-.976 0-.224-.015-.296.071-.296.292.009 1.337.009 2.671 0 4.015 0 .347 0 .347-.345.347-.215 0-.432-.009-.648 0-.168 0-.224-.064-.224-.221v-9.965c0-.363 0-.363.368-.363 1.096 0 2.193-.027 3.296.012.513.02 1.04.102 1.521.27 1.09.379 1.61 1.222 1.697 2.325.064.81-.08 1.584-.641 2.225-.464.527-1.073.794-1.745.96-.088.015-.168.046-.28.079l.026.003zm3.009 10.579l-.968.584c-.072-.102-.128-.19-.184-.277-1.048-1.761-3.545-1.65-4.553.01-.432.703-.64 1.477-.728 2.291-.096.95-.065 1.89.233 2.797.304.95.815 1.74 1.752 2.205.616.3 1.272.323 1.929.26.4-.04.8-.134 1.192-.196.193-.032.289-.127.28-.341a54.843 54.843 0 0 1 0-2.277c0-.237-.096-.316-.327-.307-.401.008-.793-.01-1.192 0-.193 0-.272-.056-.272-.261-.008-.79-.015-.79.776-.79.656 0 1.313 0 1.97-.01.192 0 .248.065.248.246-.009 1.392 0 2.782-.009 4.174 0 .095-.088.252-.168.276-1.481.498-2.993.728-4.537.363-1.6-.378-2.537-1.493-2.954-3.011-.495-1.841-.472-3.691.328-5.461.576-1.288 1.584-2.111 3-2.3 1.112-.15 2.216-.064 3.153.68.424.34.72.783.992 1.296l.039.049zm41.605 18.523c.031.009.08.031.12.031h3.778c.177 0 .193-.095.177-.245-.065-.9-.816-1.92-2.216-1.779-1.049.102-1.84.95-1.858 1.983l-.001.01zm4.504 2.861l.76.498c-.57.916-1.314 1.558-2.418 1.596-.536.024-1.089 0-1.609-.126-1.448-.363-2.232-1.375-2.465-2.797-.168-1.02-.143-2.047.296-3.012.585-1.272 1.56-1.92 2.985-1.945 2-.04 3.097 1.248 3.32 2.996.025.206.032.403.057.609.024.212-.056.276-.272.276-1.055-.008-2.113-.008-3.161-.008-.632 0-1.264.008-1.896-.01-.184 0-.256.048-.249.246.025.6.153 1.178.44 1.715.712 1.337 2.985 1.651 4.017.206.056-.08.112-.15.193-.252l.002.008zM78.24 20.688c0-.704-.256-1.28-.825-1.66-.728-.482-1.503-.497-2.265-.063-.656.371-.88 1.004-1.024 1.714h4.114v.01zm.425 2.861c.224.142.433.268.625.419.047.04.08.181.047.23-.551.83-1.272 1.407-2.32 1.446-.57.025-1.137.025-1.69-.134-1.04-.308-1.793-.95-2.16-1.968-.464-1.263-.464-2.553.056-3.808.625-1.525 2.016-2.149 3.576-1.952 1.593.197 2.45 1.328 2.705 2.742.04.252.064.513.103.766.031.221-.016.332-.296.332-1.624-.016-3.258-.01-4.89-.01-.423 0-.447.01-.375.42.064.426.127.869.28 1.272.392.971 1.304 1.462 2.368 1.422.888-.04 1.472-.497 1.976-1.192l-.005.015zm40.523-2.86h4.114c0-.673-.24-1.227-.769-1.614-.68-.498-1.432-.544-2.193-.19-.737.347-1 1.011-1.152 1.794v.01zm4.546 2.86c.215.142.432.268.625.419.04.04.065.174.04.22-.544.822-1.257 1.415-2.288 1.448-.535.015-1.088 0-1.608-.11-1.12-.238-1.896-.926-2.288-1.992-.464-1.273-.457-2.554.064-3.809.641-1.533 2.042-2.118 3.561-1.936 1.609.197 2.474 1.343 2.713 2.766.04.252.067.506.104.766.031.221-.032.308-.29.308-1.636-.01-3.276-.01-4.913-.01-.392 0-.424 0-.36.388.071.467.143.956.327 1.383.448 1.036 1.344 1.343 2.305 1.336.809-.015 1.392-.411 1.858-1.026.031-.047.071-.096.127-.158l.023.007zm14.857 11.846c.6 0 1.204-.01 1.808 0 .177 0 .264-.056.245-.253a1.974 1.974 0 0 0-1.96-1.81c-1.242 0-1.89.743-2.13 1.834-.045.206.074.222.227.222h1.808l.002.007zm3.408.885h-5.266c-.344 0-.392.04-.327.371.072.434.137.885.289 1.297.616 1.684 3.01 1.967 4.058.655.087-.12.192-.23.304-.372l.753.498c-.457.735-1.017 1.297-1.849 1.503a4.126 4.126 0 0 1-2.6-.166c-1.274-.498-1.89-1.51-2.082-2.806-.137-.925-.097-1.85.255-2.726.489-1.209 1.36-1.945 2.698-2.071 2.153-.206 3.352 1.042 3.641 2.812.047.324.065.649.096 1.012l.03-.007zm-51.72-.917c.048.016.097.04.144.04 1.242.009 2.48 0 3.729.009.208 0 .233-.12.2-.285-.168-.996-.72-1.565-1.728-1.755-1.168-.213-2.377.805-2.362 2l.018-.009zm4.482 2.868l.76.514c-.392.648-.872 1.201-1.6 1.423-1.336.411-2.617.268-3.744-.618-.688-.537-1.017-1.303-1.152-2.141-.153-.932-.137-1.866.208-2.766.424-1.122 1.185-1.897 2.4-2.118 1.801-.323 3.489.418 3.93 2.553.065.308.072.633.12.95.025.23-.064.291-.288.291-1.64-.008-3.28 0-4.92 0-.377 0-.409.025-.368.396.064.624.192 1.226.551 1.762.728 1.122 2.866 1.478 3.912.015l.177-.236.014-.025zm21.147-.765c0-.324-.006-.64 0-.965 0-.182-.032-.285-.265-.246-.311.04-.632.032-.943.071-.56.064-1.12.182-1.6.507-.536.356-.76.86-.632 1.502.12.593.52.925 1.089 1.051.871.182 1.6-.157 2.256-.695.065-.046.088-.174.088-.26.015-.324.008-.65.008-.965h-.001zm-3.361-3.273l-.793-.562c.264-.396.6-.688 1.017-.87 1-.426 2.025-.466 3.04-.055.769.308 1.12.95 1.233 1.724.047.323.06.655.064.987.01 1.494 0 2.996.01 4.496 0 .213-.057.308-.29.293-.224-.025-.495.064-.663-.031-.137-.087-.16-.364-.24-.593l-.215.157c-.993.728-2.073.821-3.177.3-.76-.355-1.172-.986-1.242-1.84-.071-.972.352-1.669 1.168-2.158.688-.418 1.456-.6 2.25-.688.32-.031.647-.047.967-.055.209-.009.296-.095.265-.303-.025-.147-.03-.3-.056-.451-.193-1.036-1.045-1.288-1.833-1.186-.616.08-.872.24-1.488.806l-.017.03zm-6.81-26.303v-.987c.003-.188-.08-.252-.264-.237-.336.033-.664.047-.993.092-.632.086-1.241.221-1.742.655-.439.387-.569.876-.432 1.424.12.498.473.822.968.95.905.23 1.68-.087 2.361-.673.065-.055.088-.19.088-.292.014-.316.007-.624.007-.94l.007.008zm-4.193-3.826c.496-.672 1.145-1.02 1.92-1.13a4.219 4.219 0 0 1 1.666.055c.992.23 1.624.916 1.712 1.92.056.673.056 1.353.056 2.023.008 1.131 0 2.26.008 3.39 0 .206-.064.293-.271.277a3.956 3.956 0 0 0-.536 0c-.2.016-.306-.047-.288-.268.008-.102-.029-.206-.051-.347l-.249.181c-.977.728-2.032.83-3.128.348-1.537-.673-1.793-2.735-.48-3.778.632-.506 1.385-.75 2.176-.86.457-.071.928-.096 1.392-.127.184-.012.289-.046.24-.268-.032-.147-.009-.304-.04-.45-.193-1.113-1.112-1.313-1.89-1.21a2.097 2.097 0 0 0-1.272.656c-.112.12-.2.142-.336.033-.2-.158-.408-.292-.632-.451l.003.006zM78.817 7.868c0-.332-.009-.664 0-.987.008-.198-.08-.253-.265-.237-.327.03-.663.046-.992.086-.576.071-1.13.213-1.609.553-.529.372-.68.894-.56 1.485.103.554.495.894 1.056 1.012.793.166 1.48-.087 2.12-.545.176-.126.264-.268.248-.49-.025-.291-.009-.583-.009-.884l.01.007zM74.63 4.042c.328-.432.697-.749 1.177-.925a4.012 4.012 0 0 1 2.62-.092c.844.246 1.332.854 1.476 1.73.047.278.072.563.072.846.008 1.558 0 3.107.008 4.656 0 .252-.071.371-.336.332-.024-.009-.047 0-.08 0-.608 0-.608 0-.737-.593-.08.055-.153.095-.216.142-.936.719-1.969.83-3.049.395-.824-.332-1.297-.964-1.392-1.85-.112-1.05.384-1.778 1.273-2.276.663-.368 1.385-.545 2.137-.617.32-.031.648-.06.968-.064.24 0 .282-.11.28-.317-.04-1.319-1.118-2.007-2.392-1.493-.303.119-.57.34-.825.537-.12.095-.193.13-.32.032-.2-.15-.408-.293-.641-.453l-.023.01zm14.172 17.592c-.031.68.097 1.312.424 1.89.417.727 1.036 1.176 1.913 1.185.877.016 1.529-.403 1.933-1.146.656-1.186.663-2.425.08-3.642-.423-.877-1.16-1.337-2.177-1.264-.905.064-1.476.584-1.849 1.359a3.34 3.34 0 0 0-.327 1.62l.003-.002zm2.428 3.998c-1.526.024-2.536-.664-3.152-1.92-.585-1.186-.625-2.434-.184-3.683.488-1.383 1.705-2.244 3.044-2.299 1.824-.064 2.96.965 3.442 2.204.464 1.209.448 2.419-.04 3.62-.489 1.193-1.65 2.15-3.106 2.087l-.004-.009zM79.471 36.35c-.024-.71-.143-1.392-.535-1.997-.921-1.438-2.889-1.407-3.762.055-.292.498-.432 1.036-.473 1.605-.056.876.084 1.715.604 2.442.872 1.226 2.561 1.249 3.485.071.505-.64.657-1.391.688-2.173l-.007-.003zm1.16-.138c-.041 1.303-.346 2.378-1.217 3.217-1.481 1.407-4.401 1.272-5.465-1.122-.617-1.392-.617-2.79.096-4.15.544-1.02 1.409-1.604 2.592-1.73 2.206-.237 3.53 1.233 3.865 2.892.072.341.097.689.128.901v-.008zm39.98-3.123c.6-.212 1.148-.458 1.724-.608.672-.175 1.36-.102 2.025.095.88.268 1.288.932 1.458 1.762.072.371.103.758.112 1.137.009 1.47-.009 2.932.009 4.395 0 .245-.08.316-.312.3a3.772 3.772 0 0 0-.625 0c-.215.016-.288-.055-.28-.271.01-.932 0-1.872 0-2.806 0-.633.01-1.264-.008-1.896a3.103 3.103 0 0 0-.093-.623c-.29-1.03-1.028-1.251-1.908-1.218-.681.024-1.28.323-1.849.679-.177.11-.255.237-.255.453.008 1.794 0 3.587.008 5.38 0 .244-.056.346-.311.321-.224-.024-.457-.008-.681 0-.168.009-.215-.064-.215-.22 0-2.376 0-4.75-.006-7.122 0-.181.072-.236.24-.23.184.01.376.016.569-.003.256-.024.327.102.336.323.009.076.025.15.032.182l.03-.03zM69.963 47.82c.352-.175.664-.347 1-.482.92-.36 1.864-.372 2.8-.076.866.268 1.249.956 1.41 1.779.08.411.103.838.112 1.248.016 1.414 0 2.821.009 4.228.008.246-.072.317-.305.301a3.903 3.903 0 0 0-.606 0c-.218.022-.292-.055-.29-.3.009-1.508.009-3.017-.009-4.52 0-.3-.056-.608-.143-.893-.209-.689-.713-1.027-1.41-1.091-.912-.087-1.689.252-2.408.766-.08.055-.121.212-.121.323-.009 1.786-.01 3.58 0 5.374 0 .268-.072.372-.345.341a3.121 3.121 0 0 0-.604 0c-.212.016-.259-.08-.259-.278.009-2.34.009-4.678 0-7.01 0-.206.047-.308.271-.277.137.016.272 0 .408 0 .424 0 .424 0 .48.434 0 .04.016.08.031.142l-.02-.009zm33.882 6.445c-.072.04-.144.07-.209.11-1.095.72-2.288.76-3.497.419-.85-.246-1.273-.9-1.427-1.73a7.956 7.956 0 0 1-.112-1.225c-.009-1.433 0-2.868-.009-4.306 0-.221.065-.304.296-.285.216.015.433.024.648 0 .224-.016.271.08.271.285a370.34 370.34 0 0 0 0 4.41c0 .246.009.498.047.743.144.83.648 1.285 1.488 1.36.846.07 1.597-.175 2.281-.665a.487.487 0 0 0 .224-.442c-.008-1.795 0-3.58-.008-5.375 0-.245.068-.339.32-.314.215.024.432.015.648 0 .192-.01.24.07.24.252a950.64 950.64 0 0 0 0 7.065c0 .182-.048.277-.249.253-.065-.009-.12 0-.184 0-.6 0-.6 0-.775-.553l.007-.002zm-2.003-29.261c-.305.157-.576.34-.872.451a4.16 4.16 0 0 1-2.977.009c-.753-.268-1.12-.894-1.273-1.636a5.404 5.404 0 0 1-.112-1.137c-.016-1.47 0-2.932-.009-4.395-.008-.22.056-.307.29-.292a4.5 4.5 0 0 0 .647 0c.215-.015.271.08.271.286a301.846 301.846 0 0 0 0 4.71c.009.308.08.633.2.925.208.538.688.76 1.229.83.887.11 1.689-.135 2.408-.655a.485.485 0 0 0 .209-.434c-.01-1.786 0-3.572-.01-5.35-.003-.253.07-.341.321-.317.184.016.377.016.564 0 .271-.031.327.087.327.332a900.156 900.156 0 0 0 0 6.875c0 .237-.056.363-.311.317-.056-.009-.112 0-.165 0-.569 0-.569 0-.737-.53v.011zm2.41 8.132c.496-.202.962-.427 1.457-.577.68-.213 1.385-.175 2.073-.016.943.221 1.447.861 1.64 1.755.08.363.112.743.112 1.115.016 1.485 0 2.978.016 4.465 0 .253-.08.332-.328.308-.159-.016-.32-.009-.488-.009-.36 0-.36 0-.36-.347 0-1.43.015-2.853-.01-4.284a4.267 4.267 0 0 0-.208-1.226c-.2-.591-.675-.868-1.288-.949-.937-.126-1.728.221-2.465.735-.096.07-.152.252-.152.387a545.166 545.166 0 0 0 0 5.35c0 .246-.056.357-.328.333-.208-.025-.432.008-.647-.016-.072-.009-.137-.11-.193-.182-.024-.03 0-.102 0-.157v-6.85c0-.364 0-.364.368-.364h.107c.176 0 .383-.047.504.024.112.064.112.286.168.434.009.031.031.057.031.05l-.008.021zM92.68 10.131c-.065.036-.12.064-.168.096-1.073.714-2.24.79-3.441.464-.944-.261-1.392-.965-1.537-1.881a7.352 7.352 0 0 1-.065-1.011c-.009-1.447.009-2.893-.009-4.34 0-.26.08-.356.336-.332.193.016.384.016.57 0 .223-.024.27.08.27.277a385.004 385.004 0 0 0 0 4.497c0 .285.04.568.104.845.152.655.612 1.011 1.257 1.122.927.157 1.745-.11 2.489-.64a.534.534 0 0 0 .233-.473c-.01-1.762-.01-3.517-.01-5.271 0-.357 0-.357.353-.357.159 0 .324.016.483-.008.289-.04.345.086.345.347-.016.854-.009 1.715-.009 2.57 0 1.429-.009 2.852 0 4.283 0 .252-.072.363-.336.323-.032-.008-.056 0-.08 0-.2-.008-.433.056-.585-.03-.121-.072-.144-.317-.216-.507l.016.026zM80.711 24.315l.936-.569c.065.08.112.142.153.206.423.633 1.048.86 1.783.83.224-.009.457-.031.673-.08.88-.206 1.207-1.272.569-1.912-.225-.23-.53-.403-.825-.537-.529-.246-1.089-.419-1.624-.656-.552-.252-1.04-.584-1.233-1.201-.383-1.241.328-2.348 1.65-2.553.631-.102 1.272-.096 1.888.095.569.166 1.024.498 1.416.995l-.793.624c-.24-.19-.44-.371-.672-.529-.56-.371-1.168-.433-1.808-.23-.336.111-.585.324-.641.689-.056.395.056.743.424.931.407.206.84.372 1.256.554.48.212.984.402 1.432.672.769.458 1.024 1.202.937 2.047-.088.854-.569 1.478-1.392 1.739-1.185.379-2.361.403-3.401-.418-.264-.206-.464-.483-.72-.76l-.008.063zm1.528 23.858c-.249.198-.473.388-.712.554-.048.03-.2-.016-.256-.071-.345-.317-.704-.617-1.176-.664a3.795 3.795 0 0 0-1.119.055c-.383.08-.625.372-.663.76-.04.378.112.694.463.869.468.23.962.403 1.432.617.473.221.953.427 1.385.71 1.136.75 1.105 2.901-.36 3.588-1.186.561-3.24.529-4.17-.854l-.16-.237.897-.545c.096.12.176.237.264.348.6.727 1.92.949 2.736.466.569-.34.681-1.256.184-1.754a2.226 2.226 0 0 0-.681-.467c-.48-.221-1-.372-1.472-.6-.417-.206-.84-.427-1.185-.735-.681-.608-.688-2.197.423-2.83.953-.537 2.96-.568 3.937.514l.233.276zm-1.063-15.6c.393 0 .744.009 1.096 0 .224-.008.233.175.28.308.517 1.383 1.024 2.775 1.534 4.164l.528 1.423c.028.08.065.158.128.301.065-.15.104-.237.137-.323.697-1.866 1.391-3.722 2.078-5.588.071-.205.168-.307.4-.292.272.016.552 0 .881 0-.04.126-.065.213-.096.301-.888 2.332-1.777 4.663-2.649 7.002-.08.197-.168.285-.392.267a5.163 5.163 0 0 0-.784 0c-.224.025-.327-.07-.408-.276-.592-1.596-1.2-3.184-1.801-4.773l-.865-2.277c-.025-.064-.04-.135-.072-.237h.005zm35.382-12.958l-.825.522c-.04-.068-.08-.116-.103-.166-.408-.773-1.017-1.273-1.92-1.242-.893.026-1.497.548-1.86 1.313-.537 1.121-.545 2.278-.01 3.4.637 1.324 2.225 1.746 3.33.895.292-.226.504-.553.784-.87.187.12.427.253.648.416.04.03.031.19-.009.26-.473.841-1.2 1.356-2.153 1.494-1.329.198-2.617-.183-3.449-1.4-.597-.876-.756-1.865-.675-2.908.047-.632.183-1.225.472-1.794.953-1.92 3.666-2.308 5.089-.965.296.28.585.694.674 1.03l.007.015zm16.647 18.452l.786.49c-.476.971-1.232 1.543-2.268 1.706-2.216.35-3.869-1.134-4.098-3.185-.088-.79-.065-1.573.196-2.323.464-1.364 1.409-2.173 2.888-2.332 1.257-.135 2.409.427 3.02 1.493.126.213.12.341-.114.459-.208.1-.397.236-.607.363-.084-.142-.153-.268-.226-.388-.788-1.28-2.418-1.372-3.342-.19-.585.744-.737 1.608-.68 2.52.038.51.157 1.002.407 1.455.438.783 1.105 1.229 2 1.244.857.016 1.489-.411 1.905-1.146l.072-.12c.009-.015.025-.023.065-.063l-.004.017zm-47.05-27.83c-.76.592-1.577.718-2.45.473-.615-.175-.936-.617-1.007-1.233a11.438 11.438 0 0 1-.053-1.039c-.005-1.359 0-2.71 0-4.07 0-.347 0-.347-.36-.347-.237 0-.473-.008-.704.004-.173.008-.24-.047-.244-.23-.015-.704-.024-.704.681-.704.625 0 .625 0 .625-.617 0-.403.01-.804-.008-1.205-.01-.19.04-.28.248-.268.233.016.464.016.704 0 .184-.009.248.064.248.246-.008.529 0 1.06-.008 1.58-.009.197.056.268.264.268.504-.01 1.008 0 1.513-.01.176 0 .224.065.232.236.016.695.025.695-.688.695-.367 0-.744.009-1.111 0-.16-.005-.224.055-.224.221 0 1.644-.009 3.28.008 4.924 0 .489.417.79.928.703.16-.03.328-.086.48-.15.143-.064.28-.156.448-.246l.44.76.038.01zm8.9 36.97c.6 0 1.144.009 1.696-.009.224-.008.311.047.311.293-.015.682 0 .682-.696.682-.384 0-.76.01-1.136 0-.16-.008-.233.047-.224.213 0 1.58-.016 3.153.008 4.733.01.766.576 1.083 1.304.784.193-.08.368-.19.585-.301.12.205.256.418.36.64.025.046-.015.174-.064.205-.784.553-1.64.617-2.512.292-.64-.237-.832-.814-.84-1.43-.016-1.588-.009-3.177-.009-4.766 0-.378 0-.378-.4-.387-.24 0-.474-.008-.705 0-.152.009-.215-.047-.215-.197 0-.19.009-.379 0-.562-.009-.166.072-.221.224-.212.28.008.56-.009.832 0 .183.008.248-.056.248-.246-.016-.522 0-1.035-.009-1.549-.008-.206.065-.276.265-.26.215.008.432.015.647 0 .216-.016.305.054.296.284-.015.483-.008.965-.008 1.447v.317l.042.03zm14.06.987v1.53c0 1.141-.009 2.284 0 3.421 0 .673.432 1.005 1.089.821.264-.07.504-.212.793-.335.12.206.255.427.376.654.016.04-.025.134-.065.17-.697.594-2.008.6-2.633.262-.472-.253-.703-.676-.703-1.186-.025-1.613-.016-3.228-.016-4.84-.009-.618.016-.499-.504-.507-.216-.009-.44.01-.648-.014-.072-.009-.128-.12-.193-.182-.008-.008 0-.015 0-.024-.031-.759-.031-.759.729-.759.607 0 .607 0 .607-.608 0-.403.009-.804 0-1.205 0-.173.065-.246.24-.237.215.009.432.01.648 0 .2-.012.288.047.28.268-.016.507.008 1.015-.009 1.525 0 .193.056.263.256.26.504-.015 1.008 0 1.512-.008.177-.005.249.047.24.23a4.89 4.89 0 0 0 0 .507c.016.19-.065.245-.249.24-.495-.009-.992-.004-1.488 0-.08 0-.159.009-.271.015l.009.002zM87.9 53.614c.128.225.256.427.368.64.024.046-.009.155-.047.193-.625.548-2.017.659-2.705.23-.432-.277-.632-.688-.64-1.177-.016-1.58-.016-3.157-.016-4.734 0-.593 0-.593-.6-.593-.77 0-.76 0-.745-.746 0-.182.065-.23.24-.23.28.015.56-.009.831.008.209.016.265-.07.265-.26-.009-.507 0-1.02-.009-1.525 0-.19.056-.277.264-.268.224.015.448.008.673 0 .176-.01.232.07.232.245-.008.498.01.996-.008 1.494-.01.237.047.332.311.316.473-.024.953 0 1.432-.009.193 0 .264.047.271.253 0 .728.01.719-.712.728-.408 0-.816.008-1.217.008-.015 0-.031.016-.071.031a2.772 2.772 0 0 0-.016.277v4.576c0 .806.495 1.146 1.264.854.2-.07.383-.19.607-.3l.028-.011zm-21.557-4.127v4.9c0 .458.04.411-.424.411-.193 0-.376-.009-.569 0-.168.01-.224-.059-.224-.218.009-.311 0-.624 0-.935v-8.907c0-.577-.065-.506.529-.51.136-.005.27.01.407-.005.226-.024.29.073.29.292-.01 1.669-.01 3.335-.01 5.003v-.03zm33.69-45.445c-.445-.016-.845-.067-1.241-.043-.529.03-.926.366-1.31.69-.071.062-.087.21-.087.316a600.23 600.23 0 0 0 0 5.326c.002.242-.056.34-.312.322a5.782 5.782 0 0 0-.647 0c-.193.008-.249-.071-.249-.253a942.22 942.22 0 0 0 0-7.034c0-.166.047-.252.233-.237.072.009.144 0 .215 0 .608 0 .608 0 .744.624a3.75 3.75 0 0 0 .256-.181c.483-.379 1-.673 1.642-.64.248.016.495.071.744.095.16.016.2.102.177.237-.056.277-.112.562-.168.799l.003-.021zm-1.18 29.221l.536-.396c.648-.482 1.376-.498 2.137-.323.056.015.144.126.128.181-.047.301-.112.593-.177.885l-.793-.095c-.744-.095-1.288.308-1.801.75-.072.065-.072.23-.072.357-.009 1.746-.009 3.494-.009 5.247 0 .356 0 .356-.36.356-.196 0-.396-.009-.592.008-.168.009-.224-.064-.215-.221 0-2.37 0-4.742-.009-7.12 0-.175.072-.238.24-.222.047.009.096 0 .136 0 .216.009.48-.055.632.047.128.086.128.363.198.584l.021-.038zm7.762-14.613c.264-.175.495-.348.737-.498.616-.387 1.28-.356 1.952-.197.056.015.14.11.131.15-.047.301-.12.6-.185.925a17.115 17.115 0 0 0-.653-.12c-.793-.118-1.385.269-1.936.76-.065.064-.065.212-.065.323-.009 1.74 0 3.485 0 5.224 0 .372 0 .379-.36.372-.256-.009-.601.055-.745-.07-.136-.12-.056-.468-.056-.72-.009-2.11-.009-4.228-.009-6.346 0-.387 0-.396.408-.387.209 0 .457-.047.6.046.121.087.128.348.193.553l-.012-.015zM91.039 51.067c0 1.153 0 2.3.009 3.454.008.253-.072.341-.32.317a5.234 5.234 0 0 0-.617 0c-.177.008-.24-.056-.24-.23.009-.451 0-.91 0-1.359v-5.618c0-.348 0-.348.36-.348.185 0 .368.016.545 0 .216-.024.28.064.28.268-.008 1.027 0 2.062 0 3.098v.427l-.017-.009zm.215-5.919c0 .498-.332.861-.795.854-.448-.009-.787-.387-.784-.876.004-.49.357-.87.804-.861.457 0 .784.371.784.876l-.009.007z"/>
    </g>
</svg>
